<svg width="101.039990234375px" height="126.839990234375px" xmlns="http://www.w3.org/2000/svg" viewBox="199.4800048828125 11.580004882812503 101.039990234375 126.839990234375" style="background: none;" preserveAspectRatio="xMidYMid"><defs><filter id="editing-hole" x="-100%" y="-100%" width="300%" height="300%"><feFlood flood-color="#000" result="black"></feFlood><feMorphology operator="dilate" radius="2" in="SourceGraphic" result="erode"></feMorphology><feGaussianBlur in="erode" stdDeviation="4" result="blur"></feGaussianBlur><feOffset in="blur" dx="2" dy="2" result="offset"></feOffset><feComposite operator="atop" in="offset" in2="black" result="merge"></feComposite><feComposite operator="in" in="merge" in2="SourceGraphic" result="inner-shadow"></feComposite></filter></defs><g filter="url(#editing-hole)"><g transform="translate(219.08499383926392, 98.03999900817871)"><path d="M29.25 0L24.13-15.68L9.54-15.68L4.54 0L0.77 0L15.10-44.80L18.50-44.80L33.09 0L29.25 0ZM16.77-39.23L10.56-19.20L23.17-19.20L16.77-39.23ZM61.06-1.47L61.06-1.47Q55.36 0.64 50.43 0.64L50.43 0.64L50.43 0.64Q44.86 0.64 41.41-2.30L41.41-2.30L41.41-2.30Q37.95-5.25 37.95-11.71L37.95-11.71L37.95-32.26L37.95-32.26Q37.95-37.12 39.33-39.62L39.33-39.62L39.33-39.62Q40.70-42.11 43.52-43.84L43.52-43.84L43.52-43.84Q46.34-45.44 50.43-45.44L50.43-45.44L50.43-45.44Q55.42-45.44 59.46-43.33L59.46-43.33L58.43-40.90L58.43-40.90Q54.78-42.24 51.52-42.24L51.52-42.24L51.52-42.24Q47.62-42.24 44.58-40.32L44.58-40.32L44.58-40.32Q41.54-38.40 41.54-32.83L41.54-32.83L41.54-11.84L41.54-11.84Q41.54-7.42 43.84-5.02L43.84-5.02L43.84-5.02Q46.14-2.62 50.75-2.62L50.75-2.62L50.75-2.62Q54.78-2.62 60.29-4.48L60.29-4.48L61.06-1.47Z" fill="#ccc"></path></g></g><style>text {
  font-size: 64px;
  font-family: Arial Black;
  dominant-baseline: central;
  text-anchor: middle;
}</style></svg>